# xmcd
#
# Track frame offsets: 
#        150
#        14501
#        28628
#        42499
#        60339
#        76601
#        91665
#        105649
#        123135
#        137573
#        150922
#        176220
#        199596
#        223198
#        241111
#        259782
#
# Disc length: 3688 seconds
#
# Revision: 0
# Processed by: cddbd v1.5.2PL0 Copyright (c) Steve Scherf et al.
# Submitted via: ExactAudioCopy v1.0b1
#
DISCID=c30e6610
DTITLE=Serge Gainsbourg - Les 50 Plus Belles Chansons
DYEAR=1900
DGENRE=
TTITLE0=Javanaise Remake
TTITLE1=Aux armes et caetera
TTITLE2=Vieille canaille
TTITLE3=Daisy Temple
TTITLE4=Overseas telegram
TTITLE5=Ecce homo
TTITLE6=Negusa nagast
TTITLE7=Dieu fumeur de havanes
TTITLE8=My Lady Héroine
TTITLE9=Le cadavre exquis
TTITLE10=Mon légionnaire
TTITLE11=No comment
TTITLE12=Lemon incest
TTITLE13=Sorry angel
TTITLE14=Aux enfants de la chance
TTITLE15=Gloomy sunday
EXTD=
EXTT0=
EXTT1=
EXTT2=
EXTT3=
EXTT4=
EXTT5=
EXTT6=
EXTT7=
EXTT8=
EXTT9=
EXTT10=
EXTT11=
EXTT12=
EXTT13=
EXTT14=
EXTT15=
PLAYORDER=
